<mxfile host="app.diagrams.net" modified="2023-06-20T17:25:08.266Z" agent="Mozilla/5.0 (Windows NT 10.0; Win64; x64; rv:109.0) Gecko/20100101 Firefox/114.0" etag="drhD67Fd7uEXZnqv9Evq" version="21.4.0" type="github">
  <diagram id="C5RBs43oDa-KdzZeNtuy" name="Page-1">
    <mxGraphModel dx="1434" dy="754" grid="1" gridSize="10" guides="1" tooltips="1" connect="1" arrows="1" fold="1" page="1" pageScale="1" pageWidth="827" pageHeight="1169" math="0" shadow="0">
      <root>
        <mxCell id="WIyWlLk6GJQsqaUBKTNV-0" />
        <mxCell id="WIyWlLk6GJQsqaUBKTNV-1" parent="WIyWlLk6GJQsqaUBKTNV-0" />
        <mxCell id="IVSxT5j8KKHt3hRW0I3O-32" style="edgeStyle=orthogonalEdgeStyle;rounded=0;orthogonalLoop=1;jettySize=auto;html=1;entryX=0.5;entryY=0;entryDx=0;entryDy=0;" edge="1" parent="WIyWlLk6GJQsqaUBKTNV-1" source="IVSxT5j8KKHt3hRW0I3O-10">
          <mxGeometry relative="1" as="geometry">
            <mxPoint x="400" y="100" as="targetPoint" />
          </mxGeometry>
        </mxCell>
        <mxCell id="IVSxT5j8KKHt3hRW0I3O-10" value="Compose Task" style="rounded=1;whiteSpace=wrap;html=1;fillColor=#dae8fc;strokeColor=#6c8ebf;" vertex="1" parent="WIyWlLk6GJQsqaUBKTNV-1">
          <mxGeometry x="340" y="10" width="120" height="60" as="geometry" />
        </mxCell>
        <mxCell id="IVSxT5j8KKHt3hRW0I3O-16" style="edgeStyle=orthogonalEdgeStyle;rounded=0;orthogonalLoop=1;jettySize=auto;html=1;entryX=0.5;entryY=0;entryDx=0;entryDy=0;" edge="1" parent="WIyWlLk6GJQsqaUBKTNV-1" source="IVSxT5j8KKHt3hRW0I3O-13" target="IVSxT5j8KKHt3hRW0I3O-20">
          <mxGeometry relative="1" as="geometry" />
        </mxCell>
        <mxCell id="IVSxT5j8KKHt3hRW0I3O-13" value="Input Task&#39;s&lt;br&gt;Name &amp;amp; Details&lt;br&gt;from a form" style="shape=parallelogram;perimeter=parallelogramPerimeter;whiteSpace=wrap;html=1;fixedSize=1;" vertex="1" parent="WIyWlLk6GJQsqaUBKTNV-1">
          <mxGeometry x="305" y="200" width="190" height="60" as="geometry" />
        </mxCell>
        <mxCell id="IVSxT5j8KKHt3hRW0I3O-18" style="edgeStyle=orthogonalEdgeStyle;rounded=0;orthogonalLoop=1;jettySize=auto;html=1;entryX=1;entryY=0.5;entryDx=0;entryDy=0;" edge="1" parent="WIyWlLk6GJQsqaUBKTNV-1" source="IVSxT5j8KKHt3hRW0I3O-15" target="IVSxT5j8KKHt3hRW0I3O-17">
          <mxGeometry relative="1" as="geometry" />
        </mxCell>
        <mxCell id="IVSxT5j8KKHt3hRW0I3O-36" style="edgeStyle=orthogonalEdgeStyle;rounded=0;orthogonalLoop=1;jettySize=auto;html=1;entryX=1;entryY=0.5;entryDx=0;entryDy=0;" edge="1" parent="WIyWlLk6GJQsqaUBKTNV-1" source="IVSxT5j8KKHt3hRW0I3O-15" target="IVSxT5j8KKHt3hRW0I3O-29">
          <mxGeometry relative="1" as="geometry">
            <Array as="points">
              <mxPoint x="730" y="470" />
              <mxPoint x="730" y="230" />
            </Array>
          </mxGeometry>
        </mxCell>
        <mxCell id="IVSxT5j8KKHt3hRW0I3O-15" value="If name.length and details.length is empty" style="rhombus;whiteSpace=wrap;html=1;" vertex="1" parent="WIyWlLk6GJQsqaUBKTNV-1">
          <mxGeometry x="520" y="410" width="180" height="120" as="geometry" />
        </mxCell>
        <mxCell id="IVSxT5j8KKHt3hRW0I3O-43" style="edgeStyle=orthogonalEdgeStyle;rounded=0;orthogonalLoop=1;jettySize=auto;html=1;entryX=0;entryY=0.5;entryDx=0;entryDy=0;" edge="1" parent="WIyWlLk6GJQsqaUBKTNV-1" source="IVSxT5j8KKHt3hRW0I3O-17" target="IVSxT5j8KKHt3hRW0I3O-42">
          <mxGeometry relative="1" as="geometry" />
        </mxCell>
        <mxCell id="IVSxT5j8KKHt3hRW0I3O-17" value="If name.length &amp;gt; 30&lt;br&gt;or details.length &amp;gt; 500" style="rhombus;whiteSpace=wrap;html=1;" vertex="1" parent="WIyWlLk6GJQsqaUBKTNV-1">
          <mxGeometry x="317.5" y="417.5" width="165" height="105" as="geometry" />
        </mxCell>
        <mxCell id="IVSxT5j8KKHt3hRW0I3O-41" style="edgeStyle=orthogonalEdgeStyle;rounded=0;orthogonalLoop=1;jettySize=auto;html=1;entryX=0;entryY=0.5;entryDx=0;entryDy=0;" edge="1" parent="WIyWlLk6GJQsqaUBKTNV-1" source="IVSxT5j8KKHt3hRW0I3O-20" target="IVSxT5j8KKHt3hRW0I3O-21">
          <mxGeometry relative="1" as="geometry" />
        </mxCell>
        <mxCell id="IVSxT5j8KKHt3hRW0I3O-50" style="edgeStyle=orthogonalEdgeStyle;rounded=0;orthogonalLoop=1;jettySize=auto;html=1;entryX=1;entryY=0.5;entryDx=0;entryDy=0;" edge="1" parent="WIyWlLk6GJQsqaUBKTNV-1" source="IVSxT5j8KKHt3hRW0I3O-20" target="IVSxT5j8KKHt3hRW0I3O-49">
          <mxGeometry relative="1" as="geometry" />
        </mxCell>
        <mxCell id="IVSxT5j8KKHt3hRW0I3O-20" value="&quot;Cancel&quot; button pressed?" style="rhombus;whiteSpace=wrap;html=1;" vertex="1" parent="WIyWlLk6GJQsqaUBKTNV-1">
          <mxGeometry x="340" y="290" width="120" height="80" as="geometry" />
        </mxCell>
        <mxCell id="IVSxT5j8KKHt3hRW0I3O-38" style="edgeStyle=orthogonalEdgeStyle;rounded=0;orthogonalLoop=1;jettySize=auto;html=1;exitX=0.5;exitY=1;exitDx=0;exitDy=0;entryX=0.5;entryY=0;entryDx=0;entryDy=0;" edge="1" parent="WIyWlLk6GJQsqaUBKTNV-1" source="IVSxT5j8KKHt3hRW0I3O-21" target="IVSxT5j8KKHt3hRW0I3O-15">
          <mxGeometry relative="1" as="geometry" />
        </mxCell>
        <mxCell id="IVSxT5j8KKHt3hRW0I3O-21" value="&quot;Create&quot; button pressed?" style="rhombus;whiteSpace=wrap;html=1;" vertex="1" parent="WIyWlLk6GJQsqaUBKTNV-1">
          <mxGeometry x="550" y="290" width="120" height="80" as="geometry" />
        </mxCell>
        <mxCell id="IVSxT5j8KKHt3hRW0I3O-25" value="&lt;b&gt;NO&lt;/b&gt;" style="text;html=1;strokeColor=none;fillColor=none;align=center;verticalAlign=middle;whiteSpace=wrap;rounded=0;" vertex="1" parent="WIyWlLk6GJQsqaUBKTNV-1">
          <mxGeometry x="440" y="300" width="60" height="30" as="geometry" />
        </mxCell>
        <mxCell id="IVSxT5j8KKHt3hRW0I3O-26" value="&lt;b&gt;YES&lt;/b&gt;" style="text;html=1;strokeColor=none;fillColor=none;align=center;verticalAlign=middle;whiteSpace=wrap;rounded=0;" vertex="1" parent="WIyWlLk6GJQsqaUBKTNV-1">
          <mxGeometry x="600" y="370" width="60" height="30" as="geometry" />
        </mxCell>
        <mxCell id="IVSxT5j8KKHt3hRW0I3O-27" value="&lt;b&gt;NO&lt;/b&gt;" style="text;html=1;strokeColor=none;fillColor=none;align=center;verticalAlign=middle;whiteSpace=wrap;rounded=0;" vertex="1" parent="WIyWlLk6GJQsqaUBKTNV-1">
          <mxGeometry x="470" y="440" width="60" height="30" as="geometry" />
        </mxCell>
        <mxCell id="IVSxT5j8KKHt3hRW0I3O-28" value="&lt;b&gt;YES&lt;/b&gt;" style="text;html=1;strokeColor=none;fillColor=none;align=center;verticalAlign=middle;whiteSpace=wrap;rounded=0;" vertex="1" parent="WIyWlLk6GJQsqaUBKTNV-1">
          <mxGeometry x="680" y="440" width="60" height="30" as="geometry" />
        </mxCell>
        <mxCell id="IVSxT5j8KKHt3hRW0I3O-37" style="edgeStyle=orthogonalEdgeStyle;rounded=0;orthogonalLoop=1;jettySize=auto;html=1;entryX=1;entryY=0.5;entryDx=0;entryDy=0;" edge="1" parent="WIyWlLk6GJQsqaUBKTNV-1" source="IVSxT5j8KKHt3hRW0I3O-29" target="IVSxT5j8KKHt3hRW0I3O-13">
          <mxGeometry relative="1" as="geometry" />
        </mxCell>
        <mxCell id="IVSxT5j8KKHt3hRW0I3O-29" value="Alert&lt;br&gt;&quot;Please fill out the form before submitting&quot;" style="rounded=0;whiteSpace=wrap;html=1;" vertex="1" parent="WIyWlLk6GJQsqaUBKTNV-1">
          <mxGeometry x="550" y="200" width="120" height="60" as="geometry" />
        </mxCell>
        <mxCell id="IVSxT5j8KKHt3hRW0I3O-51" style="edgeStyle=orthogonalEdgeStyle;rounded=0;orthogonalLoop=1;jettySize=auto;html=1;entryX=0.5;entryY=0;entryDx=0;entryDy=0;" edge="1" parent="WIyWlLk6GJQsqaUBKTNV-1" target="IVSxT5j8KKHt3hRW0I3O-13">
          <mxGeometry relative="1" as="geometry">
            <mxPoint x="400" y="160" as="sourcePoint" />
          </mxGeometry>
        </mxCell>
        <mxCell id="IVSxT5j8KKHt3hRW0I3O-44" style="edgeStyle=orthogonalEdgeStyle;rounded=0;orthogonalLoop=1;jettySize=auto;html=1;entryX=0;entryY=0.5;entryDx=0;entryDy=0;" edge="1" parent="WIyWlLk6GJQsqaUBKTNV-1" source="IVSxT5j8KKHt3hRW0I3O-42" target="IVSxT5j8KKHt3hRW0I3O-13">
          <mxGeometry relative="1" as="geometry" />
        </mxCell>
        <mxCell id="IVSxT5j8KKHt3hRW0I3O-42" value="Alert&lt;br&gt;&quot;Error illegal length&quot;" style="rounded=0;whiteSpace=wrap;html=1;" vertex="1" parent="WIyWlLk6GJQsqaUBKTNV-1">
          <mxGeometry x="130" y="200" width="120" height="60" as="geometry" />
        </mxCell>
        <mxCell id="IVSxT5j8KKHt3hRW0I3O-45" value="&lt;b&gt;YES&lt;/b&gt;" style="text;html=1;strokeColor=none;fillColor=none;align=center;verticalAlign=middle;whiteSpace=wrap;rounded=0;" vertex="1" parent="WIyWlLk6GJQsqaUBKTNV-1">
          <mxGeometry x="275" y="440" width="60" height="30" as="geometry" />
        </mxCell>
        <mxCell id="IVSxT5j8KKHt3hRW0I3O-48" value="&lt;b&gt;YES&lt;/b&gt;" style="text;html=1;strokeColor=none;fillColor=none;align=center;verticalAlign=middle;whiteSpace=wrap;rounded=0;" vertex="1" parent="WIyWlLk6GJQsqaUBKTNV-1">
          <mxGeometry x="300" y="300" width="60" height="30" as="geometry" />
        </mxCell>
        <mxCell id="IVSxT5j8KKHt3hRW0I3O-64" style="edgeStyle=orthogonalEdgeStyle;rounded=0;orthogonalLoop=1;jettySize=auto;html=1;entryX=0.5;entryY=0;entryDx=0;entryDy=0;" edge="1" parent="WIyWlLk6GJQsqaUBKTNV-1" source="IVSxT5j8KKHt3hRW0I3O-49" target="IVSxT5j8KKHt3hRW0I3O-52">
          <mxGeometry relative="1" as="geometry" />
        </mxCell>
        <mxCell id="IVSxT5j8KKHt3hRW0I3O-49" value="Redirect user to &lt;b&gt;Confirm Action&lt;/b&gt;&lt;br&gt;&lt;br&gt;to confirm action:&lt;br&gt;cancel &lt;b&gt;Compose Task?&lt;/b&gt;" style="shape=process;whiteSpace=wrap;html=1;backgroundOutline=1;fillColor=#fff2cc;strokeColor=#d6b656;" vertex="1" parent="WIyWlLk6GJQsqaUBKTNV-1">
          <mxGeometry x="130" y="292.5" width="170" height="75" as="geometry" />
        </mxCell>
        <mxCell id="IVSxT5j8KKHt3hRW0I3O-65" style="edgeStyle=orthogonalEdgeStyle;rounded=0;orthogonalLoop=1;jettySize=auto;html=1;entryX=0.5;entryY=0;entryDx=0;entryDy=0;" edge="1" parent="WIyWlLk6GJQsqaUBKTNV-1" source="IVSxT5j8KKHt3hRW0I3O-52" target="IVSxT5j8KKHt3hRW0I3O-13">
          <mxGeometry relative="1" as="geometry">
            <Array as="points">
              <mxPoint x="90" y="420" />
              <mxPoint x="90" y="180" />
              <mxPoint x="400" y="180" />
            </Array>
          </mxGeometry>
        </mxCell>
        <mxCell id="IVSxT5j8KKHt3hRW0I3O-67" style="edgeStyle=orthogonalEdgeStyle;rounded=0;orthogonalLoop=1;jettySize=auto;html=1;entryX=0.5;entryY=0;entryDx=0;entryDy=0;" edge="1" parent="WIyWlLk6GJQsqaUBKTNV-1" source="IVSxT5j8KKHt3hRW0I3O-52" target="IVSxT5j8KKHt3hRW0I3O-63">
          <mxGeometry relative="1" as="geometry" />
        </mxCell>
        <mxCell id="IVSxT5j8KKHt3hRW0I3O-52" value="If action returns &quot;cancel&quot;" style="rhombus;whiteSpace=wrap;html=1;" vertex="1" parent="WIyWlLk6GJQsqaUBKTNV-1">
          <mxGeometry x="162.5" y="380" width="105" height="80" as="geometry" />
        </mxCell>
        <mxCell id="IVSxT5j8KKHt3hRW0I3O-59" value="&lt;b&gt;YES&lt;/b&gt;" style="text;html=1;strokeColor=none;fillColor=none;align=center;verticalAlign=middle;whiteSpace=wrap;rounded=0;" vertex="1" parent="WIyWlLk6GJQsqaUBKTNV-1">
          <mxGeometry x="120" y="390" width="60" height="30" as="geometry" />
        </mxCell>
        <mxCell id="IVSxT5j8KKHt3hRW0I3O-62" value="Display empty form with entries:&lt;br&gt;Task&#39;s Name &amp;amp; Details" style="shape=parallelogram;perimeter=parallelogramPerimeter;whiteSpace=wrap;html=1;fixedSize=1;" vertex="1" parent="WIyWlLk6GJQsqaUBKTNV-1">
          <mxGeometry x="295" y="100" width="210" height="60" as="geometry" />
        </mxCell>
        <mxCell id="IVSxT5j8KKHt3hRW0I3O-72" style="edgeStyle=orthogonalEdgeStyle;rounded=0;orthogonalLoop=1;jettySize=auto;html=1;entryX=0.5;entryY=0;entryDx=0;entryDy=0;" edge="1" parent="WIyWlLk6GJQsqaUBKTNV-1" source="IVSxT5j8KKHt3hRW0I3O-63" target="IVSxT5j8KKHt3hRW0I3O-71">
          <mxGeometry relative="1" as="geometry" />
        </mxCell>
        <mxCell id="IVSxT5j8KKHt3hRW0I3O-63" value="Clear the form" style="shape=parallelogram;perimeter=parallelogramPerimeter;whiteSpace=wrap;html=1;fixedSize=1;" vertex="1" parent="WIyWlLk6GJQsqaUBKTNV-1">
          <mxGeometry x="155" y="500" width="120" height="60" as="geometry" />
        </mxCell>
        <mxCell id="IVSxT5j8KKHt3hRW0I3O-70" value="&lt;b&gt;NO&lt;/b&gt;" style="text;html=1;strokeColor=none;fillColor=none;align=center;verticalAlign=middle;whiteSpace=wrap;rounded=0;" vertex="1" parent="WIyWlLk6GJQsqaUBKTNV-1">
          <mxGeometry x="207.5" y="470" width="60" height="30" as="geometry" />
        </mxCell>
        <mxCell id="IVSxT5j8KKHt3hRW0I3O-71" value="Redirect user to&lt;br&gt;&lt;b&gt;Main Panel&lt;/b&gt;&lt;br&gt;&lt;br&gt;and display all saved tasks" style="shape=process;whiteSpace=wrap;html=1;backgroundOutline=1;fillColor=#fff2cc;strokeColor=#d6b656;" vertex="1" parent="WIyWlLk6GJQsqaUBKTNV-1">
          <mxGeometry x="130" y="585" width="170" height="77.5" as="geometry" />
        </mxCell>
      </root>
    </mxGraphModel>
  </diagram>
</mxfile>
